<?xml version="1.0" encoding="UTF-8" standalone="no"?>
<!DOCTYPE svg PUBLIC "-//W3C//DTD SVG 1.1//EN" "http://www.w3.org/Graphics/SVG/1.1/DTD/svg11.dtd">
<svg version="1.1" xmlns="http://www.w3.org/2000/svg" xmlns:xlink="http://www.w3.org/1999/xlink" preserveAspectRatio="xMidYMid meet" viewBox="0 0 640 640" width="640" height="640"><defs><path d="M616.14 153.21C589.64 160.71 377.64 220.71 351.14 228.21C343.07 230.5 337.5 237.86 337.5 246.25C337.5 271.64 337.5 474.71 337.5 500.09C326.46 493.69 313.66 490 300 490C258.64 490 225 523.65 225 565C225 606.36 258.64 640 300 640C341.35 640 375 606.36 375 565C375 563.05 375 335.43 375 335.43C390.17 331.14 466 309.68 602.5 271.04C602.5 363.47 602.5 414.82 602.5 425.09C591.46 418.69 578.65 415 565 415C523.64 415 490 448.65 490 490C490 531.36 523.64 565 565 565C606.35 565 640 531.36 640 490C640 488.34 640 171.25 640 171.25C640 165.38 637.24 159.84 632.56 156.3C627.87 152.75 621.8 151.61 616.14 153.21ZM262.5 565C262.5 544.32 279.32 527.5 300 527.5C320.68 527.5 337.5 544.32 337.5 565C337.5 585.68 320.68 602.5 300 602.5C279.32 602.5 262.5 585.68 262.5 565ZM527.5 490C527.5 469.32 544.32 452.5 565 452.5C585.68 452.5 602.5 469.32 602.5 490C602.5 510.68 585.68 527.5 565 527.5C544.32 527.5 527.5 510.68 527.5 490ZM375 296.46L375 260.43L602.5 196.05L602.5 232.07L375 296.46Z" id="cfIDc1KKX"></path><path d="M168.46 40.76C166.3 37.52 149.01 11.59 146.85 8.35C142.27 1.48 133.72 -1.59 125.82 0.81C117.91 3.2 112.5 10.49 112.5 18.75C112.5 48.14 112.5 283.21 112.5 312.59C101.46 306.19 88.66 302.5 75 302.5C33.65 302.5 0 336.15 0 377.5C0 418.86 33.65 452.5 75 452.5C116.36 452.5 150 418.86 150 377.5C150 347.68 150 109.07 150 79.24C172.41 108.12 201.86 135.79 239.46 163.35C253.89 173.92 262.5 190.9 262.5 208.75C262.5 239.77 237.27 265 206.25 265C195.9 265 187.5 273.4 187.5 283.75C187.5 294.11 195.9 302.5 206.25 302.5C257.94 302.5 300 260.45 300 208.75C300 178.99 285.66 150.71 261.63 133.1C220.03 102.61 189.55 72.4 168.46 40.76ZM37.5 377.5C37.5 356.82 54.32 340 75 340C95.68 340 112.5 356.82 112.5 377.5C112.5 398.18 95.68 415 75 415C54.32 415 37.5 398.18 37.5 377.5Z" id="a1IXUU4D09"></path></defs><g><g><g><use xlink:href="#cfIDc1KKX" opacity="1" fill="#ffffff" fill-opacity="1"></use><g><use xlink:href="#cfIDc1KKX" opacity="1" fill-opacity="0" stroke="#000000" stroke-width="1" stroke-opacity="0"></use></g></g><g><use xlink:href="#a1IXUU4D09" opacity="1" fill="#ffffff" fill-opacity="1"></use><g><use xlink:href="#a1IXUU4D09" opacity="1" fill-opacity="0" stroke="#000000" stroke-width="1" stroke-opacity="0"></use></g></g></g></g></svg>